<mxfile host="drawio-plugin" modified="2021-09-22T14:12:52.790Z" agent="5.0 (X11; Linux x86_64) AppleWebKit/537.36 (KHTML, like Gecko) Chrome/89.0.4389.114 Safari/537.36" etag="N8lcCzd88KfXb9yMAZHL" version="14.7.4" type="embed"><diagram id="G4t1x3i_cumIOjZ8GDXV" name="Page-1"><mxGraphModel dx="915" dy="830" grid="1" gridSize="10" guides="1" tooltips="1" connect="1" arrows="1" fold="1" page="1" pageScale="1" pageWidth="850" pageHeight="1100" math="0" shadow="0"><root><mxCell id="0"/><mxCell id="1" parent="0"/><mxCell id="4NMri5ObQx2eB0Vx6lmc-10" value="" style="edgeStyle=orthogonalEdgeStyle;rounded=0;orthogonalLoop=1;jettySize=auto;html=1;entryX=0;entryY=0.5;entryDx=0;entryDy=0;startArrow=classic;startFill=1;" parent="1" source="4NMri5ObQx2eB0Vx6lmc-1" target="4NMri5ObQx2eB0Vx6lmc-4" edge="1"><mxGeometry relative="1" as="geometry"/></mxCell><mxCell id="Gfm62hS2zhEuvZ2v64Gk-5" value="Get addresses" style="edgeStyle=orthogonalEdgeStyle;rounded=0;orthogonalLoop=1;jettySize=auto;html=1;entryX=0;entryY=0.5;entryDx=0;entryDy=0;" parent="1" source="4NMri5ObQx2eB0Vx6lmc-1" target="Gfm62hS2zhEuvZ2v64Gk-1" edge="1"><mxGeometry x="-0.2" relative="1" as="geometry"><Array as="points"><mxPoint x="55" y="70"/></Array><mxPoint as="offset"/></mxGeometry></mxCell><mxCell id="iYPPraAPmN5WKaSf0c-4-2" value="Get messages" style="edgeStyle=orthogonalEdgeStyle;rounded=0;orthogonalLoop=1;jettySize=auto;html=1;entryX=0;entryY=0.5;entryDx=0;entryDy=0;" parent="1" source="4NMri5ObQx2eB0Vx6lmc-1" target="iYPPraAPmN5WKaSf0c-4-1" edge="1"><mxGeometry relative="1" as="geometry"><Array as="points"><mxPoint x="115" y="240"/><mxPoint x="115" y="180"/></Array></mxGeometry></mxCell><mxCell id="4NMri5ObQx2eB0Vx6lmc-1" value="Client" style="shape=umlActor;verticalLabelPosition=bottom;verticalAlign=top;html=1;outlineConnect=0;" parent="1" vertex="1"><mxGeometry x="40" y="230" width="30" height="60" as="geometry"/></mxCell><mxCell id="4NMri5ObQx2eB0Vx6lmc-13" value="Send message&lt;br&gt;Push message" style="edgeStyle=orthogonalEdgeStyle;rounded=0;orthogonalLoop=1;jettySize=auto;html=1;entryX=0;entryY=0.75;entryDx=0;entryDy=0;startArrow=classic;startFill=1;" parent="1" source="4NMri5ObQx2eB0Vx6lmc-3" target="4NMri5ObQx2eB0Vx6lmc-4" edge="1"><mxGeometry relative="1" as="geometry"/></mxCell><mxCell id="4NMri5ObQx2eB0Vx6lmc-3" value="Client" style="shape=umlActor;verticalLabelPosition=bottom;verticalAlign=top;html=1;outlineConnect=0;" parent="1" vertex="1"><mxGeometry x="40" y="340" width="30" height="60" as="geometry"/></mxCell><mxCell id="4NMri5ObQx2eB0Vx6lmc-16" value="PUB to recipient partition&lt;br&gt;&lt;div&gt;SUB to assigned partitions&lt;/div&gt;" style="rounded=0;orthogonalLoop=1;jettySize=auto;html=1;entryX=0;entryY=0.5;entryDx=0;entryDy=0;entryPerimeter=0;startArrow=classic;startFill=1;exitX=1;exitY=0.5;exitDx=0;exitDy=0;" parent="1" source="4NMri5ObQx2eB0Vx6lmc-4" target="4NMri5ObQx2eB0Vx6lmc-9" edge="1"><mxGeometry x="0.0427" y="4" relative="1" as="geometry"><mxPoint x="1" as="offset"/></mxGeometry></mxCell><mxCell id="4NMri5ObQx2eB0Vx6lmc-4" value="&lt;font style=&quot;font-size: 12px&quot;&gt;Messaging&lt;/font&gt;" style="rounded=1;whiteSpace=wrap;html=1;gradientColor=#ffa500;fillColor=#ffcd28;strokeColor=#d79b00;" parent="1" vertex="1"><mxGeometry x="160" y="270" width="120" height="60" as="geometry"/></mxCell><mxCell id="4NMri5ObQx2eB0Vx6lmc-9" value="PUB/SUB&lt;br&gt;backplane" style="strokeWidth=2;html=1;shape=mxgraph.flowchart.direct_data;whiteSpace=wrap;gradientColor=#97d077;fillColor=#d5e8d4;strokeColor=#82b366;" parent="1" vertex="1"><mxGeometry x="680" y="260" width="120" height="80" as="geometry"/></mxCell><mxCell id="4NMri5ObQx2eB0Vx6lmc-20" value="History DB" style="shape=cylinder3;whiteSpace=wrap;html=1;boundedLbl=1;backgroundOutline=1;size=15;gradientColor=#7ea6e0;fillColor=#dae8fc;strokeColor=#6c8ebf;" parent="1" vertex="1"><mxGeometry x="680" y="140" width="120" height="80" as="geometry"/></mxCell><mxCell id="4NMri5ObQx2eB0Vx6lmc-25" value="&lt;font style=&quot;font-size: 12px&quot;&gt;Get history&lt;/font&gt;" style="rounded=0;orthogonalLoop=1;jettySize=auto;html=1;entryX=0;entryY=0.5;entryDx=0;entryDy=0;entryPerimeter=0;startArrow=none;startFill=0;exitX=1;exitY=0.5;exitDx=0;exitDy=0;" parent="1" source="iYPPraAPmN5WKaSf0c-4-1" target="4NMri5ObQx2eB0Vx6lmc-20" edge="1"><mxGeometry relative="1" as="geometry"><mxPoint x="370" y="75" as="sourcePoint"/><mxPoint x="600" y="220" as="targetPoint"/></mxGeometry></mxCell><mxCell id="Gfm62hS2zhEuvZ2v64Gk-1" value="&lt;font style=&quot;font-size: 12px&quot;&gt;Connect&lt;/font&gt;" style="rounded=1;whiteSpace=wrap;html=1;gradientColor=#ffa500;fillColor=#ffcd28;strokeColor=#d79b00;" parent="1" vertex="1"><mxGeometry x="160" y="40" width="120" height="60" as="geometry"/></mxCell><mxCell id="Ab2WFq_ZDRXyC0Tm1_-f-1" value="Each client is returned:&lt;br&gt;- the History server&lt;br&gt;- the Messaging server" style="shape=note;whiteSpace=wrap;html=1;backgroundOutline=1;darkOpacity=0.05;align=left;gradientColor=#b3b3b3;fillColor=#f5f5f5;strokeColor=#666666;" parent="1" vertex="1"><mxGeometry x="285" y="40" width="155" height="50" as="geometry"/></mxCell><mxCell id="Ab2WFq_ZDRXyC0Tm1_-f-2" value="After clients connect they:&lt;br&gt;- are subscribed to new messages&lt;br&gt;- get message history&lt;br&gt;Subsequently clients can get a dialog history for each user they exchange messages with&lt;br&gt;Each message sent by and received from a client has a generated unique message ID which allows deduplication" style="shape=note;whiteSpace=wrap;html=1;backgroundOutline=1;darkOpacity=0.05;align=left;gradientColor=#b3b3b3;fillColor=#f5f5f5;strokeColor=#666666;" parent="1" vertex="1"><mxGeometry x="160" y="350" width="630" height="80" as="geometry"/></mxCell><mxCell id="iYPPraAPmN5WKaSf0c-4-1" value="&lt;font style=&quot;font-size: 12px&quot;&gt;History&lt;/font&gt;" style="rounded=1;whiteSpace=wrap;html=1;gradientColor=#ffa500;fillColor=#ffcd28;strokeColor=#d79b00;" parent="1" vertex="1"><mxGeometry x="160" y="150" width="120" height="60" as="geometry"/></mxCell></root></mxGraphModel></diagram></mxfile>